<svg width="800" height="800" viewBox="0 0 800 800" fill="none" xmlns="http://www.w3.org/2000/svg">
<path d="M450 216.675C450 244.289 427.613 266.675 400 266.675C372.387 266.675 350 244.289 350 216.675C350 189.061 372.387 166.675 400 166.675C427.613 166.675 450 189.061 450 216.675Z" fill="#225FA5"/>
<path d="M201.711 289.467C195.889 306.932 205.328 325.809 222.793 331.631C228.636 333.57 234.526 335.377 240.422 337.143C251.21 340.38 266.304 344.693 283.582 349.013C302.969 353.86 326.032 358.957 349.277 362.423C347.744 392.18 344.017 413.53 340.554 427.697L270.186 568.433C261.953 584.9 268.627 604.923 285.093 613.157C301.559 621.39 321.582 614.713 329.815 598.25L400 457.877L470.187 598.25C478.42 614.713 498.44 621.39 514.907 613.157C531.373 604.923 538.047 584.9 529.813 568.433L459.447 427.697C455.983 413.53 452.257 392.18 450.723 362.423C473.97 358.957 497.03 353.86 516.417 349.013C533.697 344.693 548.79 340.38 559.577 337.143C565.433 335.387 571.28 333.59 577.083 331.672C594.203 325.991 604.003 306.607 598.29 289.467C592.47 272.004 573.594 262.566 556.13 268.384C550.924 270.106 545.677 271.713 540.423 273.289C530.377 276.302 516.303 280.323 500.25 284.337C467.387 292.552 429.03 300.008 400 300.008C370.97 300.008 332.615 292.552 299.752 284.337C283.697 280.323 269.624 276.302 259.579 273.289C254.389 271.732 249.211 270.135 244.062 268.447C226.745 262.72 207.515 272.055 201.711 289.467Z" fill="#225FA5"/>
<path fill-rule="evenodd" clip-rule="evenodd" d="M766.667 400.007C766.667 602.513 602.503 766.673 400 766.673C197.496 766.673 33.3335 602.513 33.3335 400.007C33.3335 197.504 197.496 33.3413 400 33.3413C602.503 33.3413 766.667 197.504 766.667 400.007ZM100.228 400.007C100.228 565.567 234.44 699.78 400 699.78C565.56 699.78 699.773 565.567 699.773 400.007C699.773 234.448 565.56 100.236 400 100.236C234.44 100.236 100.228 234.448 100.228 400.007Z" fill="#225FA5"/>
</svg>
