<svg width="800" height="800" viewBox="0 0 800 800" fill="none" xmlns="http://www.w3.org/2000/svg">
<g clip-path="url(#clip0_3_76)">
<path d="M399.983 0C179.432 0 0 179.432 0 400C0 620.568 179.432 800 400 800C620.568 800 800 620.568 800 400C800 179.432 620.568 0 399.983 0ZM399.983 678.551C246.385 678.551 121.449 553.598 121.449 400C121.449 246.402 246.385 121.449 399.983 121.449C553.581 121.449 678.551 246.402 678.551 400C678.551 553.598 553.581 678.551 399.983 678.551Z" fill="white"/>
<path d="M399.983 531.078C472.375 531.078 531.06 472.393 531.06 400C531.06 327.608 472.375 268.922 399.983 268.922C327.59 268.922 268.905 327.608 268.905 400C268.905 472.393 327.59 531.078 399.983 531.078Z" fill="white"/>
</g>
<defs>
<clipPath id="clip0_3_76">
<rect width="800" height="800" fill="white"/>
</clipPath>
</defs>
</svg>
