<svg width="800" height="800" viewBox="0 0 800 800" fill="none" xmlns="http://www.w3.org/2000/svg">
<path d="M700.996 488.889H293.85L302.94 533.333H675.743C697.133 533.333 712.987 553.196 708.247 574.054L700.585 607.771C726.544 620.372 744.444 646.983 744.444 677.778C744.444 721.114 709.001 756.172 665.522 755.547C624.101 754.951 590.036 721.337 588.918 679.926C588.307 657.306 597.369 636.803 612.256 622.221H321.078C335.49 636.34 344.444 656.008 344.444 677.778C344.444 721.962 307.6 757.543 262.958 755.469C223.319 753.629 191.082 721.601 188.999 681.974C187.39 651.371 203.493 624.397 227.958 610.326L130.393 133.333H33.3333C14.9236 133.333 1.52588e-05 118.41 1.52588e-05 100V77.7778C1.52588e-05 59.3681 14.9236 44.4445 33.3333 44.4445H175.735C191.569 44.4445 205.218 55.5847 208.392 71.0972L221.122 133.333H766.653C788.043 133.333 803.897 153.196 799.157 174.054L733.5 462.943C730.051 478.119 716.56 488.889 700.996 488.889ZM566.667 277.778H500V222.222C500 209.949 490.051 200 477.778 200H455.556C443.282 200 433.333 209.949 433.333 222.222V277.778H366.667C354.393 277.778 344.444 287.726 344.444 300V322.222C344.444 334.496 354.393 344.444 366.667 344.444H433.333V400C433.333 412.274 443.282 422.222 455.556 422.222H477.778C490.051 422.222 500 412.274 500 400V344.444H566.667C578.94 344.444 588.889 334.496 588.889 322.222V300C588.889 287.726 578.94 277.778 566.667 277.778Z" fill="#225FA5"/>
</svg>
