<svg width="800" height="800" viewBox="0 0 800 800" fill="none" xmlns="http://www.w3.org/2000/svg">
<path d="M600 691.666H200C175.688 691.666 152.373 682.01 135.182 664.816C117.991 647.626 108.333 624.31 108.333 600V200C108.333 175.688 117.991 152.372 135.182 135.182C152.373 117.991 175.688 108.333 200 108.333H495.333C501.963 108.333 508.323 110.967 513.01 115.655C517.7 120.344 520.333 126.703 520.333 133.333C520.333 139.963 517.7 146.322 513.01 151.011C508.323 155.699 501.963 158.333 495.333 158.333H200C188.949 158.333 178.351 162.723 170.537 170.537C162.723 178.351 158.333 188.949 158.333 200V600C158.333 611.05 162.723 621.65 170.537 629.463C178.351 637.276 188.949 641.666 200 641.666H600C611.05 641.666 621.65 637.276 629.463 629.463C637.277 621.65 641.667 611.05 641.667 600V343C641.667 336.37 644.3 330.01 648.99 325.322C653.677 320.634 660.037 318 666.667 318C673.297 318 679.657 320.634 684.343 325.322C689.033 330.01 691.667 336.37 691.667 343V600C691.667 624.31 682.01 647.626 664.817 664.816C647.627 682.01 624.31 691.666 600 691.666Z" fill="#1D5DAA"/>
<path d="M350 508.334C343.57 507.84 337.587 504.85 333.333 500L233.334 400C231.106 395.334 230.379 390.094 231.253 384.997C232.127 379.904 234.56 375.204 238.215 371.547C241.871 367.894 246.57 365.46 251.665 364.587C256.761 363.71 262.002 364.437 266.667 366.667L349 449L633.333 166.666C638 164.438 643.24 163.711 648.337 164.586C653.43 165.46 658.13 167.892 661.787 171.548C665.44 175.204 667.873 179.903 668.747 184.998C669.623 190.093 668.897 195.335 666.667 200L366.667 500C362.413 504.85 356.433 507.84 350 508.334Z" fill="#1D5DAA"/>
</svg>
