<svg width="800" height="800" viewBox="0 0 800 800" fill="none" xmlns="http://www.w3.org/2000/svg">
<path d="M486.045 203.929C484.541 195.115 476.903 188.667 467.955 188.667H55.3594C43.4688 188.667 33.8406 198.306 33.8406 210.175C33.8406 222.065 43.4688 231.694 55.3594 231.694H155.77C167.661 231.694 177.289 241.334 177.289 253.214C177.289 265.094 167.661 274.733 155.77 274.733H21.5188C9.63906 274.733 0 284.372 0 296.251C0 308.131 9.63906 317.758 21.5188 317.758H204.509C215.009 317.758 223.528 326.289 223.528 336.789C223.528 347.289 215.009 355.808 204.509 355.808H107.289C95.3984 355.808 85.7703 365.448 85.7703 377.328C85.7703 389.206 95.3984 398.847 107.289 398.847H178.941C189.45 398.847 197.97 407.365 197.97 417.865C197.97 428.364 189.45 436.884 178.941 436.884H80.0234C68.1328 436.884 58.5047 446.523 58.5047 458.403C58.5047 470.283 68.1328 479.922 80.0234 479.922H215.983L224.558 528.425H273.808C270.911 535.462 269.259 543.145 269.259 551.234C269.259 584.429 296.162 611.334 329.359 611.334C362.542 611.334 389.447 584.429 389.447 551.234C389.447 543.145 387.795 535.462 384.898 528.425H541.211L486.045 203.929ZM355.222 551.233C355.222 565.523 343.648 577.097 329.358 577.097C315.058 577.097 303.483 565.523 303.483 551.233C303.483 541.289 309.15 532.758 317.377 528.423H341.328C349.553 532.758 355.222 541.287 355.222 551.233Z" fill="#225FA5"/>
<path d="M799.372 490.737L774.686 368.954L684.547 230.269H520.428L571.263 528.423H631.294C628.409 535.461 626.756 543.144 626.756 551.233C626.756 584.428 653.661 611.333 686.844 611.333C720.041 611.333 746.944 584.428 746.944 551.233C746.944 543.144 745.292 535.461 742.397 528.423H768.555C777.991 528.423 786.928 524.192 792.902 516.883C798.864 509.587 801.25 499.981 799.372 490.737ZM613.327 285.753H654.442L707.82 367.858H627.333L613.327 285.753ZM712.719 551.233C712.719 565.523 701.145 577.097 686.844 577.097C672.566 577.097 660.981 565.523 660.981 551.233C660.981 541.289 666.661 532.758 674.875 528.423H698.827C707.052 532.758 712.719 541.287 712.719 551.233Z" fill="#225FA5"/>
</svg>
