<svg width="800" height="800" viewBox="0 0 800 800" fill="none" xmlns="http://www.w3.org/2000/svg">
<g clip-path="url(#clip0_2_18)">
<path d="M605.958 546.588C617.286 554.938 632.13 570.245 632.13 570.245C633.522 571.516 635.45 572.028 637.281 571.588C639.113 571.172 640.627 569.855 641.309 568.097C641.309 568.097 722.316 361.92 764.308 254.963C612.452 88.1407 328.249 258.258 159.303 134.942C147.656 126.422 132.227 110.553 132.227 110.553C130.811 109.283 128.881 108.795 127.05 109.234C125.194 109.65 123.681 110.967 122.997 112.725C122.997 112.725 42.0157 318.927 -0.00146484 425.859C152.149 593 437.109 421.978 605.958 546.588ZM496.85 214.386C557.935 212.458 617.089 215.363 669.091 236.603C660.913 265.534 673.509 295.563 695.947 318.048C678.1 363.531 660.23 409.016 642.358 454.498C616.308 441.169 586.278 455.573 572.705 481.964C520.727 460.748 461.572 457.819 400.488 459.747C451.367 434.283 496.191 390.508 516.942 337.677C537.67 284.942 528.858 237.017 496.85 214.386ZM384.961 279.864C387.939 279.034 391.041 278.423 394.116 277.838C396.167 272.564 398.242 267.316 400.292 262.042C408.935 261.553 417.553 261.017 426.172 260.505C424.17 265.681 422.119 270.856 420.092 276.033C425.927 276.155 431.347 276.667 436.206 277.595C444.458 279.183 451.466 285.066 451.466 285.066C452.442 285.555 452.881 286.481 452.638 287.605C452.394 288.728 451.514 289.875 450.245 290.755C444.874 294.392 439.455 298.08 434.035 301.766C432.325 302.963 430.225 303.28 428.858 302.694C428.858 302.694 423.364 298.689 417.677 297.713C412.038 296.688 405.714 296.467 398.853 296.833C389.894 297.37 382.667 299.177 377.222 302.35C371.802 305.5 368.139 309.43 366.309 314.117C364.649 318.366 364.894 321.491 367.091 323.566C369.264 325.617 373.83 326.813 380.836 327.008C387.403 327.106 393.995 327.203 400.611 327.302C415.284 327.522 425.294 330.378 430.763 335.652C436.28 340.925 436.866 349.055 432.594 359.919C430.055 366.389 426.319 372.077 421.388 377.058C416.431 382.088 410.62 386.336 404.03 389.875C397.364 393.489 390.041 396.247 381.959 398.298C378.444 399.202 374.855 399.861 371.242 400.447C368.825 406.575 366.408 412.678 364.016 418.781C355.397 419.294 346.78 419.831 338.136 420.319C340.48 414.338 342.824 408.356 345.192 402.375C338.014 402.277 331.399 401.667 325.392 400.495C316.213 398.689 306.739 389.753 306.739 389.753C305.836 389.241 305.469 388.264 305.738 387.166C306.031 386.116 306.934 384.944 308.13 384.138C313.867 380.328 319.605 376.472 325.342 372.589C327.149 371.417 329.395 371.075 330.738 371.856C330.738 371.856 337.647 378.497 344.288 379.767C350.977 381.013 357.959 381.428 365.234 381.038C374.414 380.477 382.569 378.669 389.624 375.569C396.728 372.492 401.416 368.025 403.711 362.214C405.322 358.014 405.177 354.767 403.174 352.497C401.172 350.202 396.728 349.006 389.941 348.713C382.42 348.639 374.902 348.517 367.381 348.419C354.052 348.15 344.725 345.441 339.427 340.484C334.08 335.503 333.592 327.545 337.839 316.705C340.183 310.723 343.724 305.303 348.386 300.494C353.074 295.733 358.542 291.534 364.744 288.091C370.997 284.602 377.734 281.842 384.961 279.864ZM68.3595 362.75C86.2313 317.267 104.102 271.808 121.974 226.323C147.999 239.653 178.028 225.2 191.553 198.858C243.555 220.098 302.759 223.028 363.867 221.075C312.964 246.564 268.139 290.314 247.388 343.145C226.659 395.928 235.449 443.878 267.431 466.436C206.347 468.389 147.167 465.484 95.1657 444.219C103.369 415.289 90.8204 385.211 68.3595 362.75Z" fill="#225FA5"/>
<path d="M198.341 354.669C208.058 356.28 218.947 349.908 222.463 340.923C225.978 331.988 220.802 323.833 211.086 322.222C201.394 320.611 190.847 326.153 187.331 335.088C183.814 344.048 188.647 353.083 198.341 354.669Z" fill="#225FA5"/>
<path d="M553.224 358.625C562.941 360.236 573.488 354.694 577.003 345.759C580.519 336.8 575.685 327.766 565.967 326.18C556.25 324.594 545.361 330.966 541.845 339.9C538.33 348.859 543.506 357.063 553.224 358.625Z" fill="#225FA5"/>
<path d="M781.324 302.106L649.903 638.875C645.264 632.527 639.942 625.569 634.035 618.489L633.766 618.172L633.449 617.855C618.458 601.864 595.411 583.284 561.817 568.855C528.272 554.402 484.23 544.098 427.539 544.098C425.733 544.098 423.828 544.123 421.875 544.147C390.6 544.147 357.96 546.1 326.611 547.98C294.433 549.908 261.425 551.861 229.589 551.838C191.919 551.863 149.902 549.324 109.155 537.555C81.7376 529.62 55.0283 517.511 30.1751 499.274L17.0408 527.399C43.7501 546.052 72.2658 558.6 100.733 566.803C145.68 579.742 190.577 582.258 229.591 582.258C262.647 582.258 296.241 580.256 328.419 578.327C359.767 576.47 391.847 574.542 421.877 574.567H421.681L422.145 574.542C423.878 574.542 425.686 574.517 427.541 574.517C480.592 574.542 520.266 584.088 549.806 596.783C579.152 609.43 598.538 625.202 611.013 638.386C619.338 648.42 626.808 658.65 632.131 666.364C634.866 670.27 637.014 673.517 638.48 675.764C639.236 676.888 639.799 677.791 640.189 678.377L640.58 679.036L640.702 679.206L644.633 685.505C646.928 689.191 651.127 691.267 655.449 690.877C659.77 690.461 663.505 687.653 665.092 683.602L800 337.897L781.324 302.106Z" fill="#225FA5"/>
</g>
<defs>
<clipPath id="clip0_2_18">
<rect width="800" height="800" fill="white"/>
</clipPath>
</defs>
</svg>
