<svg width="800" height="800" viewBox="0 0 800 800" fill="none" xmlns="http://www.w3.org/2000/svg">
<path d="M359.122 300.908C366.24 296.204 372.876 291.779 378.901 288.133C393.247 279.464 397.86 260.799 389.162 246.459C380.513 232.112 361.841 227.535 347.506 236.184C340.814 240.221 333.436 245.105 325.56 250.318C300.086 267.208 261.338 293.493 239.595 287.347C223.703 282.856 221.786 271.908 216.555 263.975C205.297 243.199 181.378 229.411 159.764 229.861C159.764 229.861 140.487 229.861 117.002 239.101C11.1784 276.841 10.8961 301.877 10.9093 314.122C10.9242 325.289 11.1537 336.08 42.4797 354.297H0.100722L0 707.166H264.297L281.84 545.67C281.84 545.67 194.204 539.214 150.559 532.893C98.1226 525.301 88.9537 476.963 88.9537 476.963L61.6647 364.432C77.303 372.049 97.6058 380.785 124.409 391.117C127.997 392.495 131.679 393.151 135.307 393.151C147.501 393.151 158.99 385.754 163.643 373.712C169.666 358.06 161.865 340.485 146.223 334.466C129.724 328.109 111.259 320.321 95.9678 313.284C98.5866 312.077 101.463 310.835 104.298 309.582L146.689 326.422C172.277 336.303 179.425 357.003 171.859 376.675C166.21 391.349 149.162 409.623 119.243 397.809C110.004 394.163 101.686 390.923 93.8048 387.674L106.97 473.214C110.719 497.563 125.666 510.169 151.564 517.147C164.074 522.372 299.663 532.662 299.663 532.662C295.098 585.78 285.8 672.94 284.68 683.131C281.641 704.319 295.357 724.614 316.568 729.397C319.632 730.078 322.7 730.406 325.694 730.406C344.63 730.406 361.704 717.326 366.034 698.086C367.855 689.976 383.762 500.229 383.913 498.339C384.869 486.835 380.475 474.293 372.688 465.783C362.693 454.853 353.734 445.194 247.257 441.586L232.789 347.666C237.12 348.316 241.453 348.749 245.794 348.749C286.984 348.751 327.984 321.563 359.122 300.908Z" fill="#225FA5"/>
<path d="M147.133 225.95C190.31 225.95 225.312 190.948 225.312 147.77C225.312 104.593 190.31 69.5903 147.133 69.5903C103.955 69.5903 68.953 104.593 68.953 147.77C68.953 190.948 103.955 225.95 147.133 225.95Z" fill="#225FA5"/>
<path d="M799.904 354.297H757.522C788.848 336.08 789.079 325.289 789.092 314.122C789.106 301.877 788.825 276.841 683 239.101C659.512 229.861 640.239 229.861 640.239 229.861C618.624 229.411 594.706 243.199 583.449 263.975C578.214 271.908 576.301 282.857 560.408 287.347C538.664 293.494 499.914 267.208 474.443 250.318C466.565 245.107 459.19 240.221 452.494 236.184C438.162 227.533 419.491 232.112 410.84 246.459C402.138 260.799 406.753 279.464 421.1 288.133C427.124 291.779 433.763 296.204 440.88 300.908C472.016 321.563 513.016 348.751 554.206 348.751C558.547 348.751 562.882 348.318 567.211 347.668L552.745 441.588C446.268 445.197 437.308 454.855 427.312 465.784C419.524 474.294 415.131 486.837 416.089 498.34C416.239 500.231 432.147 689.977 433.966 698.088C438.297 717.327 455.372 730.408 474.308 730.408C477.301 730.408 480.368 730.079 483.432 729.399C504.642 724.617 518.359 704.321 515.321 683.133C514.198 672.942 504.899 585.782 500.339 532.663C500.339 532.663 635.928 522.373 648.437 517.149C674.334 510.169 689.279 497.564 693.032 473.216L706.195 387.675C698.316 390.925 689.992 394.163 680.757 397.81C650.838 409.623 633.79 391.349 628.141 376.677C620.574 357.005 627.723 336.304 653.311 326.424L695.7 309.583C698.539 310.836 701.413 312.077 704.032 313.285C688.742 320.322 670.279 328.111 653.779 334.468C638.136 340.487 630.334 358.062 636.357 373.713C641.01 385.755 652.499 393.152 664.691 393.152C668.319 393.152 672.004 392.497 675.592 391.118C702.394 380.788 722.697 372.052 738.335 364.434L711.046 476.964C711.046 476.964 701.877 525.302 649.441 532.895C605.796 539.215 518.161 545.671 518.161 545.671L535.703 707.168H800L799.904 354.297Z" fill="#225FA5"/>
<path d="M652.872 225.95C696.05 225.95 731.052 190.948 731.052 147.77C731.052 104.593 696.05 69.5903 652.872 69.5903C609.695 69.5903 574.692 104.593 574.692 147.77C574.692 190.948 609.695 225.95 652.872 225.95Z" fill="#225FA5"/>
</svg>
