<svg width="800" height="800" viewBox="0 0 800 800" fill="none" xmlns="http://www.w3.org/2000/svg">
<path fill-rule="evenodd" clip-rule="evenodd" d="M298.724 645.69C200.648 565.713 66.6667 433.597 66.6667 308.681C66.6667 111.65 250.005 22.0879 400 183.292C549.993 22.0879 733.333 111.644 733.333 308.68C733.333 433.6 599.353 565.713 501.277 645.69C456.877 681.897 434.677 700 400 700C365.323 700 343.123 681.897 298.724 645.69ZM336.44 358.21C339.423 353.947 341.903 350.407 344.11 347.377C345.977 350.627 348.06 354.413 350.567 358.973L407.577 462.623C413.11 472.693 418.54 482.57 423.99 489.737C429.823 497.403 440.077 507.913 456.513 508.22C472.947 508.53 483.59 498.413 489.707 490.97C495.423 484.013 501.217 474.35 507.127 464.497L508.973 461.417C516.333 449.15 520.967 441.48 525.067 435.94C528.847 430.837 531.03 429.17 532.66 428.25C534.287 427.327 536.84 426.313 543.16 425.697C550.02 425.03 558.98 425.003 573.287 425.003H600C613.807 425.003 625 413.81 625 400.003C625 386.197 613.807 375.003 600 375.003H572.207C559.303 375.003 547.89 375.003 538.323 375.933C527.95 376.94 517.857 379.17 508.023 384.74C498.19 390.307 491.083 397.813 484.883 406.19C479.163 413.913 473.293 423.7 466.653 434.767L465.07 437.407C462.18 442.227 459.767 446.24 457.613 449.687C455.587 446.163 453.33 442.06 450.62 437.137L393.64 333.533C388.503 324.187 383.383 314.875 378.193 308.049C372.52 300.592 362.797 290.731 347.213 289.89C331.629 289.049 320.899 297.805 314.458 304.608C308.561 310.835 302.47 319.542 296.356 328.28L286.044 343.013C278.472 353.83 273.725 360.57 269.616 365.43C265.833 369.903 263.731 371.37 262.179 372.177C260.627 372.987 258.221 373.867 252.386 374.4C246.048 374.98 237.804 375.003 224.601 375.003H200C186.193 375.003 175 386.197 175 400.003C175 413.81 186.193 425.003 200 425.003H225.604C237.503 425.003 248.051 425.003 256.934 424.193C266.569 423.313 275.968 421.37 285.27 416.527C294.571 411.683 301.554 405.1 307.8 397.71C313.559 390.897 319.607 382.257 326.43 372.507L336.44 358.21Z" fill="#225FA5"/>
</svg>
