<svg width="800" height="800" viewBox="0 0 800 800" fill="none" xmlns="http://www.w3.org/2000/svg">
<path d="M8.92712 397.489C8.92712 413.56 21.65 423.27 37.3871 423.27C47.0971 423.27 54.7971 418.583 61.4943 411.886L388.28 114.23C391.963 110.547 395.981 109.207 400.333 109.207C404.351 109.207 408.034 110.547 412.051 114.23L738.506 411.886C745.534 418.583 753.234 423.27 762.609 423.27C778.346 423.27 791.073 413.56 791.073 397.489C791.073 387.444 787.39 381.083 781.027 375.391L665.176 269.921V72.0429C665.176 57.31 655.801 47.9357 641.073 47.9357H597.209C582.811 47.9357 572.766 57.31 572.766 72.0429V185.881L440.177 64.6772C428.459 53.6272 414.061 48.27 399.999 48.27C385.936 48.27 371.874 53.6272 359.82 64.6772L18.9714 375.391C12.9457 381.083 8.92712 387.444 8.92712 397.489ZM104.686 678.404C104.686 724.944 132.811 752.064 180.021 752.064H315.623V514.007C315.623 498.604 326.003 488.56 341.406 488.56H459.597C474.999 488.56 485.044 498.604 485.044 514.007V752.064H620.309C667.52 752.064 695.313 724.944 695.313 678.404V433.314L411.049 177.176C407.364 173.827 403.347 172.154 399.33 172.154C395.646 172.154 391.963 173.827 387.946 177.511L104.686 434.989V678.404Z" fill="#225FA5"/>
</svg>
