<svg width="800" height="800" viewBox="0 0 800 800" fill="none" xmlns="http://www.w3.org/2000/svg">
<path fill-rule="evenodd" clip-rule="evenodd" d="M666.667 133.333C721.897 133.333 766.667 178.105 766.667 233.333V566.667C766.667 621.897 721.897 666.667 666.667 666.667H133.333C78.105 666.667 33.3333 621.897 33.3333 566.667V233.333C33.3333 178.105 78.105 133.333 133.333 133.333H666.667ZM641.763 200H158.239L379.347 374.557C391.457 384.12 408.543 384.12 420.657 374.557L641.763 200ZM100 238.96V566.667C100 585.077 114.924 600 133.333 600H666.667C685.077 600 700 585.077 700 566.667V238.961L461.963 426.883C425.633 455.567 374.367 455.567 338.037 426.883L100 238.96Z" fill="#7E7E7E"/>
</svg>
