<svg width="800" height="800" viewBox="0 0 800 800" fill="none" xmlns="http://www.w3.org/2000/svg">
<path d="M400 0C249.952 0 128.295 121.655 128.295 271.728C128.295 429.102 253.32 527.491 320.947 644.727C385.645 756.884 385.595 800 400 800C414.405 800 414.356 756.884 479.053 644.727C546.705 527.491 671.705 429.102 671.705 271.728C671.705 121.655 550.049 0 400 0ZM400 375.634C342.603 375.634 296.069 329.102 296.069 271.728C296.069 214.306 342.602 167.773 400 167.773C457.399 167.773 503.931 214.306 503.931 271.728C503.931 329.102 457.397 375.634 400 375.634Z" fill="#7E7E7E"/>
</svg>
