<svg width="800" height="800" viewBox="0 0 800 800" fill="none" xmlns="http://www.w3.org/2000/svg">
<path d="M120.025 259.375C120.025 282.825 128.625 308.6 139.55 335.95C150.475 363.3 164.55 389.075 175.5 408.6C205.2 460.175 243.475 510.95 287.225 553.125C330.975 595.3 382.55 630.475 440.35 651.575C473.95 664.85 507.55 679.7 545.05 679.7C563.8 679.7 590.375 672.675 614.575 662.5C638.025 652.35 659.1 636.725 666.925 617.975C670.05 610.95 673.95 601.575 676.3 590.625C678.65 580.475 680.2 570.3 680.2 563.275C680.2 559.375 680.2 555.45 679.425 554.675C677.075 549.975 671.6 546.075 665.35 542.175C651.275 535.15 648.95 532.8 627.85 520.3C605.975 507.8 583.325 493.725 563.775 483.575C554.4 478.1 548.15 475.75 545.8 475.75C533.3 475.75 517.675 492.95 504.4 511.7C490.325 530.45 474.7 547.65 463.775 547.65C458.3 547.65 452.825 545.3 446.575 541.4C440.325 537.5 434.075 534.375 430.175 532.025C361.425 492.95 315.325 446.875 276.275 378.9C271.575 371.075 260.65 354.675 260.65 346.075C260.65 335.925 274.725 324.2 288.775 311.7C302.05 299.975 316.125 285.925 316.125 268.725C316.125 266.375 314.55 259.35 311.425 249.2C304.4 228.875 295.025 205.45 287.2 182.8C283.3 171.85 280.175 164.05 279.375 160.15C277.8 157.8 277.025 154.675 276.25 150.775C275.475 146.875 273.9 143.75 273.125 140.625C270.775 133.6 266.875 128.125 262.975 125C259.075 123.425 249.7 121.1 240.325 120.3C230.95 120.3 220 119.525 215.325 119.525C212.975 119.525 209.85 119.525 206.725 120.3H196.575C171.575 131.25 153.6 153.125 140.325 178.9C127.825 204.675 120 233.6 120 259.375H120.025Z" fill="#7E7E7E"/>
</svg>
