<svg width="800" height="800" viewBox="0 0 800 800" fill="none" xmlns="http://www.w3.org/2000/svg">
<path d="M748.68 387.68C736.842 375.427 720.659 368.323 703.627 367.904C686.595 367.485 670.082 373.784 657.656 385.44L534.476 494.88C540.704 506.892 543.942 520.229 543.915 533.76C543.849 551.208 538.493 568.225 528.553 582.565C518.614 596.906 504.559 607.894 488.245 614.08L384.741 652.96C380.772 654.378 376.405 654.184 372.577 652.419C368.749 650.654 365.765 647.459 364.265 643.52C363.507 641.568 363.146 639.484 363.203 637.391C363.26 635.298 363.735 633.237 364.599 631.329C365.463 629.422 366.699 627.706 368.235 626.283C369.771 624.859 371.576 623.757 373.543 623.04L477.046 584.16C487.276 580.273 496.085 573.375 502.312 564.377C508.538 555.378 511.888 544.703 511.92 533.76C511.527 519.628 505.738 506.182 495.742 496.185C485.746 486.187 472.301 480.396 458.169 480H159.979C159.979 475.798 159.152 471.637 157.544 467.755C155.936 463.873 153.58 460.345 150.609 457.374C147.638 454.402 144.111 452.045 140.229 450.437C136.347 448.828 132.186 448 127.984 448H63.9946C59.7926 448 55.6319 448.828 51.7499 450.437C47.868 452.045 44.3408 454.402 41.3698 457.374C38.3988 460.345 36.0422 463.873 34.4346 467.755C32.8269 471.637 31.9996 475.798 32 480V736C31.9994 744.486 35.3699 752.625 41.37 758.626C47.3701 764.627 55.5084 767.999 63.9946 768H127.984C136.47 767.999 144.609 764.627 150.609 758.626C156.609 752.625 159.979 744.486 159.979 736H224.768L244.765 744.16C306.821 769.836 375.477 774.926 440.641 758.683C505.805 742.439 564.04 705.719 606.784 653.92L752.519 477.76C763.153 464.938 768.648 448.624 767.938 431.981C767.229 415.338 760.366 399.551 748.68 387.68ZM207.971 704H159.979V512H207.971V704ZM486.689 32C455.125 31.9151 424.492 42.6959 399.938 62.5312C375.384 42.6959 344.752 31.9152 313.187 32C276.376 32.092 241.104 46.7811 215.109 72.8451C189.114 98.9091 174.518 134.22 174.523 171.031C174.523 317.312 383.003 440.641 391.877 445.828C394.325 447.251 397.107 448 399.938 448C402.77 448 405.551 447.251 408 445.828C416.873 440.64 625.354 317.312 625.354 171.031C625.359 134.22 610.763 98.9091 584.768 72.8451C558.773 46.781 523.501 32.092 486.689 32ZM458.337 330.514C455.412 332.915 451.718 334.182 447.934 334.08C444.709 334.055 441.568 333.051 438.926 331.201C436.284 329.352 434.265 326.744 433.137 323.723C432.009 320.702 431.825 317.409 432.609 314.281C433.392 311.153 435.107 308.336 437.526 306.203C496.751 255.469 529.37 207.453 529.37 171.031C529.404 159.669 524.929 148.757 516.928 140.69C508.926 132.623 498.052 128.059 486.689 128C482.446 128 478.376 126.314 475.376 123.314C472.375 120.313 470.689 116.243 470.689 112C470.689 107.757 472.375 103.687 475.376 100.686C478.376 97.6857 482.446 96 486.689 96C506.535 96.0686 525.543 104.007 539.543 118.073C553.542 132.14 561.39 151.185 561.365 171.031C561.365 229.89 505.345 290.232 458.337 330.514Z" fill="#225FA5"/>
</svg>
